<svg width="32" height="24" viewBox="0 0 32 24" fill="none" xmlns="http://www.w3.org/2000/svg">
<path d="M27.2244 9.75394L10.5072 0.825978C9.80291 0.449817 8.83225 0.615293 7.97411 1.25761C7.11594 1.90003 6.54324 2.88986 6.4796 3.84079L5.97684 11.3511H14.4156C14.8039 11.3511 15.0151 11.7009 14.8871 12.1324C14.7592 12.5639 14.3407 12.9138 13.9523 12.9138H5.51362L1.56378 20.424C1.06363 21.375 1.04944 22.3648 1.5268 23.0072C2.00511 23.6508 2.87836 23.8142 3.80401 23.4388L25.8143 14.5109C26.8165 14.1044 27.6343 13.193 27.9487 12.1324C28.2631 11.0718 27.9856 10.1604 27.2244 9.75394Z" fill="white"/>
</svg>
